<?xml version="1.0" encoding="utf-8"?>
<!-- Generator: Adobe Illustrator 16.0.0, SVG Export Plug-In . SVG Version: 6.00 Build 0)  -->
<!DOCTYPE svg PUBLIC "-//W3C//DTD SVG 1.1//EN" "http://www.w3.org/Graphics/SVG/1.1/DTD/svg11.dtd">
<svg version="1.1" id="Layer_1" xmlns:serif="http://www.serif.com/"
	 xmlns="http://www.w3.org/2000/svg" xmlns:xlink="http://www.w3.org/1999/xlink" x="0px" y="0px" width="174.845px"
	 height="174.842px" viewBox="0 308.486 174.845 174.842" enable-background="new 0 308.486 174.845 174.842" xml:space="preserve">
<g id="ODIN" transform="matrix(1.00784,0,0,1.00784,-476.143,-714.215)">
	<g transform="matrix(0.163923,0,0,0.163923,432.428,576.237)">
		<g id="O">
			<path fill="#FFFFFF" d="M472.277,3639.497c-20.29-13.927-36.324-27.416-36.324-27.416l521.773-903.737
				c0,0,21.478,7.965,39.217,16.471c22.365,10.72,40.887,21.168,40.887,21.168c252.915,146.022,339.708,469.912,193.686,722.83
				c-146.028,252.924-469.918,339.705-722.839,193.683C508.677,3662.497,490.965,3652.312,472.277,3639.497z M339.034,3506.816
				c-17.73-25.678-24.043-37.99-24.043-37.99c-91.158-158.335-97.844-359.685,0.003-529.159
				c97.846-169.477,275.558-264.356,458.264-264.581c0,0,24.667-0.065,45.205,1.903c30.942,2.964,51.515,6.957,51.515,6.957
				L370.996,3548.2C370.996,3548.2,359.159,3535.952,339.034,3506.816z"/>
			<path fill="#1899FB" d="M1155.115,3424.711c-121.662,210.766-391.566,283.095-602.33,161.432l440.959-763.765
				C1204.509,2944.044,1276.843,3213.945,1155.115,3424.711z"/>
			<path fill="#1899FB" d="M720.454,2766.51l-352.707,610.865c-52.482-123.235-48.424-268.81,23.606-393.623
				C463.445,2858.939,587.531,2782.671,720.454,2766.51z"/>
		</g>
	</g>
</g>
</svg>
